 <svg  version="1.0" xmlns="http://www.w3.org/2000/svg"  width="300.000000pt" height="314.000000pt" viewBox="0 0 300.000000 314.000000"  preserveAspectRatio="xMidYMid meet">  <g transform="translate(0.000000,314.000000) scale(0.100000,-0.100000)" fill="#2d468f" stroke="none"> <path d="M1379 2490 c-77 -68 -213 -120 -312 -120 -26 0 -80 7 -119 16 -251 57 -450 -68 -383 -241 l17 -45 19 24 c32 41 115 76 180 76 45 0 182 -31 197 -45 2 -2 -7 -23 -20 -47 -20 -38 -23 -56 -22 -163 0 -66 5 -183 12 -260 7 -77 12 -210 12 -296 0 -167 -14 -243 -60 -317 l-21 -34 43 7 c176 30 328 140 364 263 18 61 17 89 -11 367 -17 177 -19 328 -4 411 6 33 36 113 70 184 36 76 63 149 69 185 5 32 8 60 6 62 -1 2 -18 -10 -37 -27z"/> <path d="M1558 2393 c-36 -38 -80 -90 -97 -118 -35 -55 -71 -161 -71 -206 0 -27 2 -29 27 -23 35 9 28 9 155 -6 94 -12 119 -12 197 2 158 28 277 99 350 209 23 34 40 63 38 65 -2 2 -27 -5 -55 -16 -69 -26 -184 -27 -250 -2 -60 23 -132 72 -182 123 -21 22 -39 39 -42 39 -2 0 -33 -30 -70 -67z"/> <path d="M1651 1764 c-109 -29 -197 -94 -266 -197 -19 -28 -33 -53 -31 -55 2 -2 30 10 62 26 106 53 218 65 345 36 l69 -16 0 -61 c0 -57 32 -158 45 -145 3 2 28 51 56 109 28 57 70 132 95 165 40 57 42 63 26 77 -78 68 -268 97 -401 61z"/> <path d="M684 1710 c-15 -22 -49 -57 -76 -76 l-48 -36 46 -31 c26 -17 61 -51 78 -75 l31 -43 15 23 c30 46 74 90 107 106 l34 18 -45 32 c-25 18 -60 53 -77 77 -18 25 -34 45 -36 45 -1 0 -15 -18 -29 -40z"/> <path d="M2157 1055 c-144 -102 -349 -119 -670 -54 -194 39 -334 38 -461 -5 -145 -49 -256 -140 -293 -239 -25 -68 -11 -177 28 -228 19 -23 19 -24 31 -4 6 11 32 42 57 68 119 128 302 158 614 103 375 -66 572 -6 680 209 22 43 72 187 64 184 -1 0 -23 -15 -50 -34z"/> </g> </svg> 