<?xml version="1.0" standalone="no"?>
<!DOCTYPE svg PUBLIC "-//W3C//DTD SVG 20010904//EN"
 "http://www.w3.org/TR/2001/REC-SVG-20010904/DTD/svg10.dtd">
<svg version="1.0" xmlns="http://www.w3.org/2000/svg"
 width="300.000000pt" height="89.000000pt" viewBox="0 0 300.000000 89.000000"
 preserveAspectRatio="xMidYMid meet">
<metadata>
Created by potrace 1.10, written by Peter Selinger 2001-2011
</metadata>
<g transform="translate(0.000000,89.000000) scale(0.100000,-0.100000)"
fill="#2d468f" stroke="none">
<path d="M2800 689 l0 -111 -32 6 c-79 17 -98 17 -150 2 -99 -28 -163 -116
-162 -221 1 -131 99 -228 229 -228 92 0 165 45 211 133 17 31 19 60 19 264 l0
230 -50 18 c-27 10 -53 18 -57 18 -5 0 -8 -50 -8 -111z m-62 -223 c68 -35 75
-135 13 -190 -34 -31 -104 -26 -141 9 -96 92 11 242 128 181z"/>
<path d="M222 589 c-74 -14 -141 -73 -167 -148 -27 -80 -12 -157 43 -222 70
-82 181 -103 280 -53 29 14 52 31 52 38 0 7 -16 27 -36 45 -35 32 -36 32 -69
17 -18 -9 -44 -16 -57 -16 -26 0 -88 35 -88 50 0 6 58 10 160 10 l160 0 0 50
c0 151 -130 258 -278 229z m101 -120 c22 -12 37 -28 37 -41 0 -5 -40 -8 -90
-8 -50 0 -90 4 -90 9 0 5 12 19 26 30 30 23 83 27 117 10z"/>
<path d="M1135 587 c-26 -6 -57 -28 -91 -62 -42 -42 -54 -61 -64 -107 -50
-222 216 -375 383 -220 15 14 27 29 27 33 0 3 -19 19 -41 34 l-42 27 -44 -22
c-54 -27 -99 -21 -137 16 -34 35 -42 83 -22 126 31 65 102 85 164 48 l34 -21
33 21 c59 36 60 44 15 83 -61 52 -132 66 -215 44z"/>
<path d="M1620 590 c-156 -30 -230 -208 -144 -346 43 -71 116 -107 205 -102
52 3 75 10 109 32 l43 28 -40 39 -39 40 -39 -17 c-23 -9 -51 -13 -69 -10 -30
6 -66 32 -66 48 0 4 73 8 161 8 l162 0 -6 60 c-4 33 -15 77 -26 98 -47 92
-151 142 -251 122z m114 -131 c14 -11 26 -25 26 -30 0 -5 -40 -9 -90 -9 -72 0
-90 3 -90 15 0 41 110 59 154 24z"/>
<path d="M2108 586 c-65 -18 -111 -56 -142 -118 -77 -155 32 -329 206 -328 56
0 123 25 147 54 8 10 10 20 5 24 -5 4 -23 20 -40 35 -30 27 -31 27 -69 11 -23
-9 -51 -13 -69 -10 -30 6 -66 32 -66 48 0 4 72 8 160 8 l160 0 0 43 c0 161
-142 274 -292 233z m126 -127 c14 -11 26 -25 26 -30 0 -5 -40 -9 -90 -9 -49 0
-90 4 -90 9 0 5 12 19 26 30 35 27 93 27 128 0z"/>
<path d="M581 480 l81 -110 -36 -53 c-20 -28 -57 -80 -82 -114 l-45 -63 71 0
70 0 43 59 c23 33 47 60 52 60 6 0 30 -26 53 -59 l44 -60 69 0 70 0 -45 63
c-25 34 -62 86 -82 114 l-36 53 76 104 c42 57 76 107 76 110 0 3 -31 6 -68 6
l-69 0 -38 -55 c-21 -31 -41 -58 -46 -60 -4 -3 -27 22 -50 55 l-42 60 -73 0
-74 0 81 -110z"/>
</g>
</svg>
