<svg width="164" height="171" viewBox="0 0 164 171" fill="none" xmlns="http://www.w3.org/2000/svg">
<path d="M51.964 39.6002L51.9589 39.599C44.8452 37.9836 38.2872 38.9015 33.9052 41.6572C31.7028 43.0422 30.0148 44.9191 29.1617 47.1987C28.3035 49.4922 28.3399 52.0635 29.368 54.722C29.3688 54.724 29.3696 54.726 29.3703 54.728L30.2917 57.167L31.2274 59.644L32.871 57.568L33.9057 56.261L33.9121 56.2529L33.9121 56.2528C34.5623 55.4198 35.8668 54.5114 37.5402 53.8052C39.189 53.1093 41.0046 52.6911 42.5322 52.6911C43.5698 52.6911 45.898 53.0747 48.1762 53.5931C49.2893 53.8464 50.3348 54.1192 51.1383 54.3693C51.2243 54.3961 51.3066 54.4224 51.385 54.448C51.2354 54.7593 51.0549 55.113 50.8524 55.4869L50.8481 55.4947L50.844 55.5027C50.2481 56.6348 49.8589 57.5671 49.6575 59.0253C49.4698 60.3847 49.4463 62.1976 49.4732 65.0851C49.4736 68.7254 49.7478 75.1368 50.1329 79.3731C50.509 83.5105 50.7802 90.7067 50.7802 95.357C50.7802 104.394 50.0115 108.172 47.7388 111.828L47.7365 111.832L46.5929 113.684L44.8654 116.481L48.1101 115.952L50.4518 115.571L50.4629 115.569L50.4629 115.569C55.4749 114.715 60.1561 112.722 63.8601 110.044C67.548 107.378 70.3708 103.955 71.473 100.191C72.5562 96.519 72.4381 94.633 70.9275 79.6348C70.0033 70.0106 69.9159 61.9682 70.6927 57.6677L51.964 39.6002ZM51.964 39.6002C54.0172 40.074 56.8396 40.4331 58.1073 40.4331C60.569 40.4331 63.5823 39.7797 66.5145 38.654C69.4426 37.5298 72.1726 35.9795 74.1016 34.2772C74.6481 33.7884 75.1778 33.3604 75.5953 33.0589C75.7971 32.9131 76.0095 32.77 76.2021 32.6649C76.2837 32.6203 76.4463 32.5349 76.6434 32.4788C76.7299 32.4542 76.9539 32.3956 77.2377 32.4231C77.5337 32.4517 78.0537 32.6048 78.378 33.12C78.5134 33.3295 78.5634 33.5161 78.5786 33.5728L78.5793 33.5754C78.6139 33.7043 78.6279 33.8175 78.6347 33.8867C78.6487 34.0302 78.6488 34.1746 78.6462 34.2906C78.6406 34.5329 78.6175 34.8324 78.5855 35.1525C78.5206 35.8019 78.4073 36.648 78.2686 37.5357L78.2675 37.5432L78.2662 37.5507C77.9025 39.733 76.3507 43.8705 74.3846 48.0211L74.3819 48.0268M51.964 39.6002L74.3819 48.0268M74.3819 48.0268C72.5382 51.8767 70.9821 56.0785 70.693 57.6661L74.3819 48.0268ZM77.6401 35.2978C77.6391 35.2983 77.638 35.2989 77.6368 35.2996C77.6481 35.294 77.6497 35.2925 77.6401 35.2978ZM51.7994 53.4707C51.7993 53.4707 51.7987 53.473 51.7977 53.4774C51.7989 53.4728 51.7994 53.4707 51.7994 53.4707Z" fill="#2D468F" stroke="white" stroke-width="3"/>
<path d="M83.7576 39.649L83.7715 39.6342L83.7858 39.6199C84.7967 38.609 85.7305 37.6889 86.4283 37.0187C86.7756 36.6852 87.0735 36.4048 87.2967 36.2039C87.4057 36.1057 87.5131 36.0118 87.6069 35.9365C87.6506 35.9014 87.7169 35.8496 87.7926 35.7995C87.8285 35.7758 87.8968 35.7321 87.9851 35.689C87.9862 35.6884 87.9877 35.6877 87.9895 35.6868C88.0355 35.6639 88.3005 35.5318 88.6586 35.5318C88.9749 35.5318 89.2127 35.6307 89.2917 35.6647C89.4006 35.7116 89.4889 35.763 89.5464 35.7986C89.663 35.8708 89.7713 35.9525 89.8574 36.021C90.0358 36.1627 90.2427 36.3469 90.4581 36.5479C90.8933 36.9541 91.4432 37.5046 92.0239 38.1127C94.6165 40.7549 98.3552 43.2879 101.391 44.4524C102.954 45.0437 105.215 45.3608 107.591 45.3412C109.959 45.3218 112.272 44.9693 113.934 44.3451C114.728 44.0333 115.491 43.7736 116.086 43.6025C116.38 43.5181 116.664 43.4461 116.904 43.4032C117.017 43.3829 117.172 43.3596 117.335 43.3559C117.414 43.3541 117.549 43.355 117.707 43.3846C117.821 43.4058 118.198 43.4833 118.528 43.8132C119.016 44.3018 118.979 44.8974 118.973 44.9997L118.973 45.003C118.961 45.1901 118.919 45.3415 118.896 45.4162C118.847 45.5802 118.777 45.737 118.722 45.8544C118.603 46.1055 118.433 46.4148 118.238 46.7478C117.843 47.4226 117.281 48.3068 116.644 49.2486C112.394 55.6497 105.512 59.6927 96.6007 61.2722C94.4555 61.6572 92.9535 61.8661 91.3134 61.8809C89.6906 61.8955 87.9811 61.7194 85.426 61.3933C85.0289 61.3464 84.657 61.3023 84.3084 61.261C81.5812 60.938 80.2744 60.7832 79.4488 60.7497C78.7383 60.7209 78.5201 60.7774 77.7399 60.9792C77.6775 60.9953 77.6115 61.0124 77.5414 61.0304L77.5297 61.0334L77.5179 61.0363C77.1873 61.1156 76.8068 61.2016 76.4585 61.2236C76.1187 61.2451 75.4871 61.2308 74.9427 60.7615C74.4237 60.3141 74.298 59.7172 74.252 59.4076C74.2019 59.0704 74.1974 58.6816 74.1974 58.3251C74.1974 56.8346 74.7615 54.5785 75.4971 52.4335C76.2442 50.2549 77.2529 47.9484 78.2902 46.3145C79.3107 44.6401 81.7957 41.7199 83.7576 39.649Z" fill="#2D468F" stroke="white" stroke-width="3"/>
<path d="M75.1721 88.9882C75.1721 88.9882 75.1725 88.9872 75.1732 88.9852C75.1725 88.9872 75.1721 88.9882 75.1721 88.9882ZM111.561 83.312L111.545 83.3343L111.529 83.3561C110.26 85.0313 108.026 89.0037 106.508 92.0926C105.743 93.6771 105.017 95.1435 104.459 96.2319C104.181 96.7749 103.939 97.234 103.753 97.5697C103.661 97.7353 103.574 97.8869 103.498 98.0088C103.461 98.068 103.415 98.1399 103.363 98.2101L103.363 98.211C103.354 98.2227 103.273 98.3403 103.134 98.4682C102.843 98.7422 102.418 98.9542 101.903 98.9328C101.428 98.913 101.08 98.7005 100.887 98.5525C100.522 98.272 100.275 97.8811 100.123 97.6121C99.7827 97.0112 99.4613 96.1759 99.1875 95.3014C98.639 93.549 98.1592 91.2368 98.1592 89.4755V87.3455L95.5677 86.7445C95.5668 86.7444 95.566 86.7442 95.5652 86.744C88.9572 85.2356 83.2175 85.8677 77.7842 88.5843C76.8949 89.029 76.0474 89.425 75.3959 89.7001C75.0756 89.8354 74.7726 89.9542 74.524 90.034C74.4072 90.0715 74.2498 90.1178 74.0856 90.1448C74.0086 90.1575 73.8638 90.1776 73.6898 90.1679L73.6894 90.1679C73.5864 90.1621 73.0914 90.1344 72.6763 89.7193C72.2467 89.2897 72.2279 88.7785 72.2266 88.6372C72.2249 88.4423 72.2592 88.284 72.2791 88.2031C72.3215 88.0305 72.3855 87.8721 72.4331 87.7623C72.5357 87.5257 72.6822 87.2457 72.8448 86.9566C73.176 86.3679 73.6478 85.6115 74.1814 84.8248C78.1203 78.9466 83.2032 75.1683 89.5225 73.4863C93.3869 72.4409 97.9993 72.3527 102.179 72.9893C106.32 73.6198 110.298 75.0022 112.735 77.1264L112.737 77.1282C112.963 77.3262 113.361 77.6842 113.585 78.2164C113.847 78.8408 113.778 79.4464 113.606 79.955C113.45 80.4169 113.177 80.8987 112.864 81.3945C112.539 81.9079 112.104 82.5378 111.561 83.312Z" fill="#2D468F" stroke="white" stroke-width="3"/>
<path d="M32.2108 80.8147L32.229 80.801L32.2476 80.788C33.5678 79.8589 35.2782 78.0959 35.9979 77.049C36.395 76.4262 36.7911 75.8605 37.0999 75.444C37.255 75.2347 37.3956 75.053 37.5083 74.9161C37.5621 74.8508 37.6245 74.7774 37.6867 74.7115C37.7143 74.6823 37.7683 74.6263 37.8373 74.5674C37.8693 74.5402 37.9385 74.4828 38.0338 74.424C38.0347 74.4234 38.0361 74.4226 38.0378 74.4215C38.0831 74.3928 38.3913 74.1975 38.829 74.1975C39.1206 74.1975 39.3395 74.2819 39.4356 74.3234C39.5477 74.3717 39.6331 74.4242 39.6838 74.4577C39.7849 74.5244 39.8628 74.5917 39.9059 74.6304C39.9979 74.7128 40.0841 74.8039 40.1526 74.8792C40.2965 75.0372 40.4692 75.2445 40.6538 75.4752C41.0278 75.9427 41.5063 76.5765 42.0068 77.2716L42.0068 77.2716L42.0135 77.2811C42.8384 78.4455 44.6225 80.2327 45.8558 81.1216C45.857 81.1225 45.8581 81.1233 45.8593 81.1241L48.3027 82.8617L50.2853 84.2715L48.1353 85.4098L46.2837 86.39L46.2602 86.4025L46.2363 86.4141C45.5486 86.7475 44.6359 87.4369 43.6642 88.4022C42.7087 89.3514 41.7686 90.495 41.0112 91.6564L40.1943 92.9089L38.9999 94.7404L37.7211 92.9667L36.0329 90.625L36.0329 90.625L36.0257 90.6148C35.208 89.4604 33.4384 87.741 32.181 86.9188L32.1723 86.9131L32.1636 86.9073L29.6585 85.2191L27.9097 84.0405L29.5968 82.7752L32.2108 80.8147Z" fill="#2D468F" stroke="white" stroke-width="3"/>
<path d="M116.6 112.322L116.604 112.319C117.343 111.799 118.017 111.332 118.516 110.992C118.764 110.823 118.975 110.682 119.132 110.58C119.208 110.531 119.284 110.482 119.35 110.443C119.38 110.425 119.427 110.398 119.481 110.37C119.505 110.357 119.556 110.332 119.62 110.306C119.652 110.293 119.708 110.272 119.78 110.252C119.795 110.247 119.82 110.24 119.853 110.233C120.044 110.188 120.291 110.168 120.568 110.237C120.967 110.335 121.249 110.572 121.422 110.802C121.697 111.169 121.725 111.551 121.731 111.637L121.732 111.642C121.75 111.89 121.712 112.124 121.693 112.237C121.643 112.523 121.55 112.888 121.441 113.272C121.217 114.061 120.869 115.129 120.477 116.258C119.703 118.485 118.695 121.117 118.043 122.393C114.939 128.569 110.484 132.615 104.081 134.579C97.7732 136.513 89.706 136.386 79.4129 134.574L79.4125 134.574C62.5174 131.596 53.2594 133.354 47.3339 139.727L47.3253 139.737L47.3166 139.746C46.6596 140.429 45.988 141.18 45.4447 141.828C44.8655 142.519 44.5286 142.98 44.448 143.128L44.4333 143.155L44.4174 143.181C44.411 143.192 44.4045 143.203 44.3978 143.214C44.26 143.444 44.0783 143.747 43.8852 143.976C43.6945 144.203 43.1173 144.809 42.1912 144.659C41.8177 144.599 41.5409 144.43 41.3759 144.31C41.2074 144.187 41.0673 144.049 40.9629 143.939C40.786 143.753 40.5801 143.503 40.3722 143.251C40.3437 143.216 40.3151 143.181 40.2865 143.147L40.2686 143.125L40.2514 143.103C38.9665 141.422 38.1886 138.951 37.8851 136.516C37.5797 134.065 37.7228 131.399 38.5103 129.257L38.5102 129.257L38.5131 129.25C40.7455 123.276 47.2631 118.086 55.3935 115.338C62.655 112.88 70.5726 112.865 81.2756 115.016L81.2776 115.017C98.6643 118.537 109.288 117.501 116.6 112.322ZM118.742 111.689C118.742 111.689 118.741 111.694 118.74 111.704C118.742 111.694 118.742 111.689 118.742 111.689Z" fill="#2D468F" stroke="white" stroke-width="3"/>
</svg>
