<svg width="400" height="119" viewBox="0 0 400 119" fill="none" xmlns="http://www.w3.org/2000/svg">
<path d="M389.344 14.9182L390.667 15.3943V16.8V47.4667C390.667 61.0395 390.601 68.8886 390.245 73.8596C389.884 78.8971 389.21 81.21 387.897 83.6106C381.44 95.9496 371.052 102.4 358 102.4C339.566 102.4 325.609 88.5786 325.467 70.0171C325.326 55.1561 334.417 42.6007 348.517 38.6102C352.045 37.593 354.632 37.03 357.74 37.0668C360.778 37.1027 364.22 37.7117 369.461 38.8391L371.333 39.1901V26.8C371.333 22.7085 371.434 18.9591 371.621 16.2137C371.714 14.8514 371.832 13.6812 371.982 12.8249C372.054 12.4129 372.149 11.9731 372.291 11.5966C372.358 11.4192 372.481 11.1293 372.7 10.8484C372.896 10.5965 373.453 9.99999 374.4 9.99999C374.695 9.99999 374.989 10.059 375.139 10.0903C375.341 10.1322 375.572 10.1889 375.818 10.2541C376.314 10.3854 376.941 10.5699 377.648 10.7914C379.063 11.2349 380.859 11.8448 382.686 12.5212C382.689 12.5223 382.692 12.5234 382.695 12.5245L389.344 14.9182ZM364.151 58.3116L364.151 58.3116L364.142 58.3068C350.678 51.2872 338.19 68.4866 349.379 79.2181C351.444 81.1688 354.537 82.3624 357.682 82.571C360.852 82.7813 363.713 81.9747 365.453 80.3887L365.463 80.3796L365.473 80.3705C372.89 73.7905 371.737 62.2157 364.151 58.3116Z" fill="#2D468F" stroke="white" stroke-width="4"/>
<path d="M5.43837 59.2271L5.441 59.2193L5.44368 59.2116C9.13187 48.5726 18.617 40.1784 29.2218 38.1694C50.1891 34.0648 68.6667 49.2777 68.6667 70.6666V77.3333V79.3333H66.6667H45.3334C38.5509 79.3333 33.2661 79.4665 29.6949 79.6959C28.9467 79.7439 28.2835 79.7956 27.7044 79.85C28.247 80.2307 28.8737 80.6252 29.5527 81.0099C30.7232 81.6732 31.9847 82.2714 33.1337 82.698C34.3304 83.1423 35.2282 83.3333 35.7334 83.3333C36.3309 83.3333 37.4265 83.1558 38.7493 82.7893C40.0389 82.4319 41.3796 81.9408 42.4389 81.4111L42.472 81.3946L42.5058 81.3792L42.5127 81.3761C43.5698 80.8956 44.5331 80.4577 45.3879 80.1973C46.3045 79.9179 47.2621 79.7864 48.3054 80.0398C49.293 80.2797 50.1494 80.8168 50.9672 81.4475C51.7835 82.077 52.7317 82.9381 53.8774 83.9856C55.2768 85.2456 56.5521 86.5885 57.4951 87.7673C57.9648 88.3544 58.3809 88.9365 58.6906 89.4732C58.9404 89.906 59.3334 90.6548 59.3334 91.4666C59.3334 92.0958 59.0901 92.5979 58.9166 92.892C58.7261 93.215 58.4882 93.5052 58.2562 93.7539C57.7899 94.2537 57.1766 94.7662 56.4994 95.2628C55.1362 96.2625 53.2999 97.3532 51.2856 98.3266C37.3005 105.381 21.4984 102.424 11.5456 90.7652L11.5455 90.7652L11.5399 90.7585C3.76039 81.5645 1.61117 70.5669 5.43837 59.2271ZM25.0741 80.2474C25.0638 80.2513 25.0661 80.2511 25.0784 80.2458C25.0769 80.2464 25.0754 80.2469 25.0741 80.2474ZM25.929 78.2765C25.9225 78.2623 25.9181 78.255 25.9175 78.2549C25.9169 78.2548 25.9202 78.2619 25.929 78.2765ZM44.3314 60.3904C44.6763 60.3613 44.991 60.3305 45.275 60.2988C45.2372 60.255 45.1975 60.2103 45.1558 60.1646C44.4777 59.4213 43.447 58.6228 42.141 57.9066C40.2756 56.9833 37.7725 56.5839 35.2308 56.7932C32.6768 57.0036 30.3118 57.8093 28.6927 59.0468C28.1898 59.4426 27.7109 59.8694 27.2908 60.2836C27.4218 60.2981 27.5579 60.3125 27.699 60.3266C29.7804 60.5347 32.7106 60.6666 36 60.6666C39.3033 60.6666 42.242 60.5672 44.3314 60.3904Z" fill="#2D468F" stroke="white" stroke-width="4"/>
<path d="M183.098 93.7288L183.094 93.7326C159.392 115.732 121.622 94.0185 128.714 62.5012C129.405 59.3248 130.198 56.9252 131.621 54.567C133.021 52.2464 134.968 50.0701 137.786 47.2524C142.35 42.6882 146.81 39.4033 150.851 38.4588C162.47 35.3871 172.62 37.3475 181.297 44.7446L181.304 44.7499L181.31 44.7553C182.802 46.0482 184.058 47.2048 184.901 48.2829C185.744 49.3616 186.449 50.7108 186.17 52.2963C185.908 53.7826 184.866 54.9191 183.757 55.8453C182.608 56.8051 181.013 57.8374 179.058 59.0307L174.674 61.8206L173.616 62.4938L172.549 61.8349L168.029 59.0431C164.333 56.8419 160.474 56.3895 157.139 57.3545C153.809 58.3181 150.847 60.7386 149.009 64.5854C146.705 69.5476 147.605 75.0456 151.549 79.1199C153.821 81.3259 156.192 82.5104 158.707 82.8144C161.249 83.1218 164.152 82.5545 167.506 80.8778L173.372 77.9445L174.391 77.4353L175.348 78.051L180.948 81.651L180.971 81.6656L180.993 81.6809C182.506 82.7123 183.925 83.784 184.98 84.6635C185.504 85.0995 185.968 85.5133 186.316 85.867C186.486 86.0393 186.668 86.2372 186.822 86.443C186.898 86.5446 186.999 86.6908 187.089 86.8688C187.158 87.0063 187.333 87.3741 187.333 87.8667C187.333 88.3535 187.173 88.7503 187.094 88.9312C186.994 89.1604 186.871 89.3793 186.751 89.5723C186.509 89.9617 186.19 90.3919 185.836 90.8278C185.121 91.7068 184.157 92.7401 183.098 93.7288Z" fill="#2D468F" stroke="white" stroke-width="4"/>
<path d="M224.249 101.73L224.246 101.73C211.722 102.434 201.252 97.3358 195.096 87.1803C182.943 67.6629 193.365 42.321 215.615 38.0373C229.823 35.1993 244.569 42.2936 251.243 55.3478C252.871 58.4628 254.374 64.5985 254.919 69.0927L254.921 69.1135L254.923 69.1343L255.723 77.1343L255.943 79.3333H253.733H234.84L235.299 79.8038L240.481 85.119L245.796 90.3013L247.585 92.0458L245.491 93.4093L239.758 97.1427L239.753 97.1458C237.386 98.6773 235.309 99.7464 232.867 100.468C230.45 101.182 227.773 101.527 224.249 101.73ZM233.144 79.3333H232.133C226.293 79.3333 220.961 79.4662 217.102 79.664C215.89 79.7262 214.834 79.7943 213.96 79.8655C214.194 80.0671 214.455 80.2737 214.741 80.4812C216.251 81.5767 218.174 82.4949 219.827 82.8323C221.768 83.1453 225.087 82.7128 227.903 81.6177L233.068 79.3666L233.144 79.3333ZM211.49 80.1666C211.49 80.1666 211.491 80.1663 211.494 80.1655C211.491 80.1662 211.49 80.1666 211.49 80.1666ZM229.964 59.0393L229.964 59.0393L229.955 59.0319C228.851 58.1536 227.203 57.5188 225.206 57.2049C223.231 56.8944 221.059 56.9218 219.048 57.2418C217.018 57.5648 215.282 58.1644 214.114 58.898C213.341 59.3831 212.964 59.8212 212.794 60.1704C212.946 60.2092 213.143 60.2518 213.396 60.2939C215.003 60.5618 217.832 60.6667 222.667 60.6667C225.956 60.6667 228.886 60.5347 230.968 60.3266C231.109 60.3125 231.245 60.2981 231.376 60.2836C230.953 59.8667 230.471 59.4372 229.964 59.0393Z" fill="#2D468F" stroke="white" stroke-width="4"/>
<path d="M280.533 38.6058L280.539 38.6041C301.9 32.7654 322 48.9074 322 71.6V77.3333V79.3333H320H298.667C292.826 79.3333 287.528 79.4661 283.703 79.664C282.516 79.7254 281.481 79.7925 280.624 79.8627C280.858 80.0652 281.121 80.2727 281.408 80.4811C282.918 81.5766 284.841 82.4949 286.493 82.8323C288.437 83.1457 291.762 82.7116 294.581 81.6132C295.807 81.0972 296.858 80.6564 297.754 80.379C298.68 80.0925 299.632 79.9153 300.644 80.0742C301.662 80.2342 302.509 80.6981 303.293 81.2646C304.049 81.8117 304.891 82.5643 305.864 83.4401C306.294 83.8198 306.726 84.2008 307.146 84.5726C308.98 86.1927 310.615 87.6375 311.116 88.0382C312.29 88.9774 312.331 90.3844 312.142 91.3033C311.944 92.2667 311.428 93.2166 310.762 94.0494L310.751 94.0623L310.741 94.0751C308.81 96.4079 305.389 98.3618 301.693 99.7262C297.941 101.111 293.609 101.999 289.606 102C264.933 102.138 249.408 77.3878 260.342 55.3768L260.345 55.3722C264.726 46.6095 271.309 41.1601 280.533 38.6058ZM278.164 80.1633C278.161 80.1643 278.159 80.1647 278.159 80.1648C278.159 80.1648 278.161 80.1643 278.164 80.1633ZM297.634 60.3266C297.776 60.3125 297.912 60.2981 298.043 60.2835C297.622 59.8687 297.142 59.4413 296.638 59.045C294.716 57.5652 292.072 56.7666 289.333 56.7666C286.595 56.7666 283.95 57.5652 282.028 59.0449C281.527 59.4398 281.048 59.8655 280.629 60.2789C280.773 60.295 280.924 60.3109 281.081 60.3264C283.181 60.5348 286.112 60.6666 289.333 60.6666C292.623 60.6666 295.553 60.5347 297.634 60.3266Z" fill="#2D468F" stroke="white" stroke-width="4"/>
<path d="M70.9059 90.4375L70.9139 90.4263L70.9221 90.4152C73.8071 86.4916 77.8976 80.76 80.6746 76.869C81.0905 76.2862 81.477 75.7447 81.8255 75.2567L85.8173 69.3799L75.8562 55.8526L65.0562 41.1859L62.7103 38H66.6667H76.5334H86.2667H87.308L87.9052 38.8531L93.5052 46.8531L93.5075 46.8564C95.0039 49.0034 96.4832 50.8646 97.6274 52.1186C97.86 52.3735 98.0708 52.5944 98.2583 52.7823C98.5315 52.4502 98.8496 52.0452 99.2067 51.5746C100.277 50.1637 101.622 48.2624 103.011 46.2116L103.016 46.204L103.021 46.1965L108.088 38.8631L108.684 38H109.733H118.933C121.447 38 123.775 38.1016 125.498 38.2582C126.349 38.3356 127.103 38.4309 127.673 38.5458C127.942 38.6001 128.264 38.677 128.558 38.7946C128.694 38.8492 128.943 38.9588 129.193 39.1566C129.399 39.3194 130 39.8588 130 40.8C130 41.1664 129.897 41.4535 129.873 41.5207L129.871 41.5264C129.831 41.6401 129.786 41.7384 129.754 41.8064C129.687 41.946 129.607 42.0922 129.53 42.2277C129.37 42.5055 129.151 42.8606 128.888 43.2705C128.359 44.0966 127.604 45.225 126.681 46.5664C124.835 49.2521 122.29 52.8351 119.48 56.6492C119.479 56.6505 119.478 56.6518 119.477 56.6531L110.18 69.3754L114.175 75.2567C114.523 75.7448 114.91 76.2864 115.326 76.8694C118.103 80.7604 122.193 86.4918 125.078 90.4152L125.086 90.4263L125.094 90.4375L131.094 98.8375L133.353 102H129.467H120.133H110.933H109.92L109.321 101.183L103.454 93.1827L103.44 93.1633L103.426 93.1436C101.933 91.002 100.419 89.1037 99.2011 87.7594C98.7641 87.277 98.381 86.8833 98.0629 86.5823C97.7488 86.898 97.3705 87.3058 96.9396 87.7991C95.7271 89.1871 94.205 91.1284 92.7075 93.2769L92.6954 93.2942L92.683 93.3113L86.9497 101.178L86.3506 102H85.3334H76.0001H66.5334H62.647L64.9059 98.8375L70.9059 90.4375ZM97.4584 53.6638C97.4583 53.6644 97.4665 53.6582 97.4836 53.6432C97.4671 53.6556 97.4585 53.6631 97.4584 53.6638ZM97.3686 85.9998C97.3232 85.9722 97.3285 85.9814 97.3763 86.0046C97.3735 86.0029 97.371 86.0013 97.3686 85.9998Z" fill="#2D468F" stroke="white" stroke-width="4"/>
</svg>
